<svg width="24" height="24" viewBox="0 0 24 24" fill="none" xmlns="http://www.w3.org/2000/svg">
<circle cx="12" cy="12" r="12" fill="#5429CC"/>
<path fill-rule="evenodd" clip-rule="evenodd" d="M12.2143 7C12.2971 7 12.378 7.02688 12.4465 7.07717C12.5668 7.16267 15.4286 9.27301 15.4286 12.5128C15.4286 13.4376 15.0899 14.3246 14.4871 14.9786C13.8843 15.6326 13.0668 16 12.2143 16C11.3618 16 10.5442 15.6326 9.94144 14.9786C9.33865 14.3246 9 13.4376 9 12.5128C9 9.327 11.8576 7.16717 11.982 7.07717C12.0506 7.02688 12.1315 7 12.2143 7ZM12.2727 14.3636C13.1765 14.3636 13.9091 13.631 13.9091 12.7273C13.9091 11.8235 13.1765 11.0909 12.2727 11.0909C11.369 11.0909 10.6364 11.8235 10.6364 12.7273C10.6364 13.631 11.369 14.3636 12.2727 14.3636Z" fill="white"/>
</svg>
