<svg width="24" height="24" viewBox="0 0 24 24" fill="none" xmlns="http://www.w3.org/2000/svg">
<circle cx="12" cy="12" r="12" fill="#2C6BC9"/>
<path d="M12.4465 7.07717C12.378 7.02688 12.2971 7 12.2143 7C12.1315 7 12.0506 7.02688 11.982 7.07717C11.8576 7.16717 9 9.327 9 12.5128C9 13.4376 9.33865 14.3246 9.94144 14.9786C10.5442 15.6326 11.3618 16 12.2143 16C13.0668 16 13.8843 15.6326 14.4871 14.9786C15.0899 14.3246 15.4286 13.4376 15.4286 12.5128C15.4286 9.27301 12.5668 7.16267 12.4465 7.07717ZM12.2143 15.1001C11.5821 15.0989 10.9762 14.8259 10.5292 14.3409C10.2562 14.0448 10.0561 13.6844 9.94144 13.2924C9.86832 13.0425 9.82992 12.7798 9.82949 12.5128C9.82949 12.3067 9.84413 12.1054 9.87122 11.9091C9.9104 11.6253 9.97561 11.3521 10.0602 11.0909C10.5561 9.56035 11.7186 8.44259 12.2143 8.0131C12.7133 8.43571 13.8744 9.55774 14.3692 11.0909C14.4535 11.3522 14.5184 11.6254 14.5575 11.9091C14.5845 12.1054 14.5991 12.3068 14.5991 12.5128C14.5987 12.7798 14.5603 13.0425 14.4871 13.2924C14.3724 13.6844 14.1723 14.0448 13.8994 14.3409C13.4524 14.8259 12.8464 15.0989 12.2143 15.1001Z" fill="white"/>
<path d="M14.3692 11.0909H10.0602C9.97561 11.3521 9.9104 11.6253 9.87122 11.9091H14.5575C14.5184 11.6254 14.4535 11.3522 14.3692 11.0909Z" fill="white"/>
<path d="M14.5991 12.5128H9.82949C9.82992 12.7798 9.86832 13.0425 9.94144 13.2924H14.4871C14.5603 13.0425 14.5987 12.7798 14.5991 12.5128Z" fill="white"/>
</svg>
