<svg width="24" height="24" viewBox="0 0 24 24" fill="none" xmlns="http://www.w3.org/2000/svg">
<circle cx="12" cy="12" r="12" fill="#F9DA62"/>
<path d="M12.4465 7.07717C12.378 7.02688 12.2971 7 12.2143 7C12.1315 7 12.0506 7.02688 11.982 7.07717C11.8576 7.16717 9 9.327 9 12.5128C9 13.4376 9.33865 14.3246 9.94144 14.9786C10.5442 15.6326 11.3618 16 12.2143 16C13.0668 16 13.8843 15.6326 14.4871 14.9786C15.0899 14.3246 15.4286 13.4376 15.4286 12.5128C15.4286 9.27301 12.5668 7.16267 12.4465 7.07717ZM12.2143 15.1001C11.5821 15.0989 10.9762 14.8259 10.5292 14.3409C10.0822 13.856 9.83059 13.1986 9.82949 12.5128C9.82949 12.1693 9.87019 11.8387 9.94144 11.5231C10.3369 9.77158 11.6731 8.48206 12.2143 8.0131C12.759 8.47448 14.0931 9.76952 14.4875 11.5231C14.5585 11.8388 14.5991 12.1695 14.5991 12.5128C14.598 13.1986 14.3464 13.856 13.8994 14.3409C13.4524 14.8259 12.8464 15.0989 12.2143 15.1001Z" fill="white"/>
<path d="M10.5292 14.3409C10.9762 14.8259 11.5821 15.0989 12.2143 15.1001C12.8464 15.0989 13.4524 14.8259 13.8994 14.3409C14.3464 13.856 14.598 13.1986 14.5991 12.5128C14.5991 12.1695 14.5585 11.8388 14.4875 11.5231H9.94144C9.87019 11.8387 9.82949 12.1693 9.82949 12.5128C9.83059 13.1986 10.0822 13.856 10.5292 14.3409Z" fill="white"/>
</svg>
