<svg width="24" height="24" viewBox="0 0 24 24" fill="none" xmlns="http://www.w3.org/2000/svg">
<circle cx="12" cy="12" r="12" fill="#FD7326"/>
<path d="M12.4465 7.07717C12.378 7.02688 12.2971 7 12.2143 7C12.1315 7 12.0506 7.02688 11.982 7.07717C11.8576 7.16717 9 9.327 9 12.5128C9 13.4376 9.33865 14.3246 9.94144 14.9786C10.5442 15.6326 11.3618 16 12.2143 16C13.0668 16 13.8843 15.6326 14.4871 14.9786C15.0899 14.3246 15.4286 13.4376 15.4286 12.5128C15.4286 9.27301 12.5668 7.16267 12.4465 7.07717ZM12.2143 15.1001C11.5821 15.0989 10.9762 14.8259 10.5292 14.3409C10.2034 13.9875 9.98147 13.5426 9.88459 13.0617C9.84852 12.8828 9.82979 12.6988 9.82949 12.5128C9.82949 12.1693 9.87019 11.8387 9.94144 11.5231C10.3369 9.77158 11.6731 8.48206 12.2143 8.0131C12.759 8.47448 14.0931 9.76952 14.4875 11.5231C14.5585 11.8388 14.5991 12.1695 14.5991 12.5128C14.5988 12.6988 14.5801 12.8828 14.544 13.0617C14.4471 13.5426 14.2251 13.9875 13.8994 14.3409C13.4524 14.8259 12.8464 15.0989 12.2143 15.1001Z" fill="white"/>
<path d="M9.94144 11.5231C9.87019 11.8387 9.82949 12.1693 9.82949 12.5128C9.82979 12.6988 9.84852 12.8828 9.88459 13.0617H14.544C14.5801 12.8828 14.5988 12.6988 14.5991 12.5128C14.5991 12.1695 14.5585 11.8388 14.4875 11.5231C14.0931 9.76952 12.759 8.47448 12.2143 8.0131C11.6731 8.48206 10.3369 9.77158 9.94144 11.5231Z" fill="white"/>
</svg>
